<svg width="120" height="120" viewBox="0 0 120 120" fill="none" xmlns="http://www.w3.org/2000/svg">
<ellipse cx="60" cy="98" rx="50" ry="10" fill="#FFFAF3"/>
<path d="M81.9385 39.4276H99.6616V98.5045H81.9385V39.4276Z" fill="#DBAD65"/>
<path d="M52.3999 16H70.123V21.7046H52.3999V16Z" fill="#AABECE"/>
<path d="M73.0768 39.4277C71.9507 38.0615 70.9537 36.5661 70.123 34.9969C68.683 31.5261 67.1691 21.7046 67.1691 21.7046H55.3537C55.3537 21.7046 53.8399 31.5261 52.3999 34.9969C51.5691 36.5661 50.5722 38.0615 49.446 39.4277H73.0768Z" fill="#CEB289"/>
<path d="M37.6309 39.4276H81.9386V98.5045H37.6309V39.4276Z" fill="#FFD782"/>
<path d="M94.1846 76.4123H91.2307C91.2307 72.3323 93.3907 64.5969 101.569 64.5969V67.5508C94.3138 67.5508 94.1846 76.0431 94.1846 76.4123Z" fill="#995F5B"/>
<path d="M80.8921 64.5969H83.8459C88.7382 64.5969 92.7075 68.5662 92.7075 73.4585H89.7536C84.8613 73.4585 80.8921 69.4892 80.8921 64.5969Z" fill="#55B56A"/>
<path d="M106 88.2276C106 96.3876 99.3907 102.997 91.2307 102.997C83.0707 102.997 76.4614 96.3876 76.4614 88.2276C76.4614 80.0676 83.0707 73.4584 91.2307 73.4584C99.3907 73.4584 106 80.0676 106 88.2276Z" fill="#E97424"/>
<path d="M61.623 54.7697C61.7303 54.8769 61.8509 54.9573 61.985 55.011C62.1191 55.078 62.28 55.1048 62.4408 55.1048C62.6017 55.1048 62.7492 55.078 62.8833 55.011C63.0173 54.9439 63.138 54.8635 63.2453 54.7562C63.3525 54.649 63.433 54.5283 63.4866 54.3943C63.5402 54.2602 63.5804 54.1127 63.5804 53.9518C63.5804 53.7909 63.5536 53.6435 63.4866 53.5094C63.433 53.3753 63.3391 53.2547 63.2453 53.1474C63.138 53.0402 63.0173 52.9597 62.8833 52.8927C62.7492 52.8256 62.5883 52.7988 62.4408 52.7988C62.28 52.7988 62.1325 52.8256 61.985 52.8927C61.8509 52.9597 61.7303 53.0402 61.623 53.134C61.5158 53.2413 61.4353 53.3619 61.3817 53.496C61.3281 53.6301 61.2878 53.7775 61.2878 53.9384C61.2878 54.0993 61.3147 54.2468 61.3817 54.3808C61.4353 54.5417 61.5158 54.6624 61.623 54.7697Z" fill="#361515"/>
<path d="M57.4267 54.7697C57.534 54.8769 57.6546 54.9573 57.7887 55.011C57.9228 55.078 58.0837 55.1048 58.2445 55.1048C58.4054 55.1048 58.5529 55.078 58.687 55.011C58.821 54.9439 58.9417 54.8635 59.049 54.7562C59.1562 54.649 59.2367 54.5283 59.2903 54.3943C59.3439 54.2602 59.3841 54.1127 59.3841 53.9518C59.3841 53.7909 59.3573 53.6435 59.2903 53.5094C59.2367 53.3753 59.1428 53.2547 59.049 53.1474C58.9417 53.0402 58.821 52.9597 58.687 52.8927C58.5529 52.8256 58.392 52.7988 58.2445 52.7988C58.0837 52.7988 57.9362 52.8256 57.7887 52.8927C57.6546 52.9597 57.534 53.0402 57.4267 53.134C57.3195 53.2413 57.239 53.3619 57.1854 53.496C57.1318 53.6301 57.0916 53.7775 57.0916 53.9384C57.0916 54.0993 57.1184 54.2468 57.1854 54.3808C57.2524 54.5417 57.3329 54.6624 57.4267 54.7697Z" fill="#361515"/>
<path d="M67.5891 62.1434C67.5891 62.2507 67.6025 62.3579 67.6159 62.4384C67.6293 62.5322 67.6561 62.5992 67.6964 62.6663C67.7366 62.7333 67.8036 62.7735 67.8706 62.8138C67.9511 62.8406 68.0449 62.8674 68.179 62.8674C68.246 62.8674 68.3131 62.8674 68.3935 62.854C68.474 62.8406 68.541 62.8272 68.5946 62.8004L68.5812 62.4786C68.5276 62.5054 68.4874 62.5188 68.4203 62.5322C68.3667 62.5456 68.3131 62.5456 68.2594 62.5456C68.179 62.5456 68.1254 62.5322 68.0717 62.5054C68.0315 62.4786 67.9913 62.4384 67.9779 62.3981C67.9511 62.3579 67.9511 62.3043 67.9377 62.2373C67.9377 62.1836 67.9377 62.1166 67.9377 62.0496V60.977H68.5678V60.682H67.9377V60.0787H67.5757V60.682H67.1064V60.977H67.5757V62.1434H67.5891Z" fill="#361515"/>
<path d="M64.9078 62.5323C65.0016 62.6262 65.1089 62.7066 65.2429 62.7736C65.377 62.8273 65.5245 62.8675 65.6988 62.8675C65.8999 62.8675 66.0742 62.8407 66.2216 62.7736C66.3691 62.7066 66.5166 62.5993 66.6373 62.4251L66.3691 62.2105C66.2887 62.3178 66.1948 62.3982 66.0876 62.4519C65.9803 62.5055 65.8463 62.5323 65.6988 62.5323C65.6049 62.5323 65.5111 62.5189 65.4306 62.4787C65.3502 62.4385 65.2832 62.3982 65.2161 62.3312C65.1491 62.2642 65.1089 62.1971 65.0687 62.1167C65.0284 62.0362 65.015 61.9424 65.0016 61.8486H66.7311V61.7279C66.7311 61.5536 66.7043 61.3927 66.6641 61.2586C66.6104 61.1246 66.5434 61.0039 66.463 60.9101C66.3825 60.8162 66.2619 60.7358 66.1412 60.6956C66.0205 60.6419 65.8865 60.6151 65.7256 60.6151C65.5647 60.6151 65.4172 60.6419 65.2832 60.6956C65.1491 60.7492 65.0284 60.8296 64.9346 60.9235C64.8407 61.0173 64.7603 61.138 64.7067 61.2855C64.653 61.4195 64.6262 61.5804 64.6262 61.7413C64.6262 61.9022 64.653 62.0362 64.7067 62.1837C64.7603 62.3312 64.8139 62.4251 64.9078 62.5323ZM65.2161 61.1112C65.3368 61.0039 65.4977 60.9503 65.6988 60.9503C65.8999 60.9503 66.0474 61.0039 66.168 61.1112C66.2753 61.2184 66.3423 61.3659 66.3423 61.5536H65.0016C65.015 61.3659 65.0955 61.2184 65.2161 61.1112Z" fill="#361515"/>
<path d="M62.6689 61.6877L63.728 62.8004H64.2509L63.1247 61.6474L64.1571 60.6687H63.6476L62.6689 61.6072V59.3549H62.3203V62.8004H62.6689V61.6877Z" fill="#361515"/>
<path d="M47.9077 48.5354V64.5969H74.7216V48.5354H47.9077ZM68.474 52.3296C68.4874 52.2893 68.5142 52.2491 68.541 52.2223C68.5678 52.1955 68.6081 52.1687 68.6483 52.1553C68.6885 52.1419 68.7287 52.1285 68.7824 52.1285C68.8494 52.1285 68.9164 52.1419 68.97 52.1821C69.0237 52.2223 69.0773 52.2759 69.1041 52.3564L70.0292 54.5551L70.9543 52.3564C70.9811 52.2893 71.0213 52.2357 71.0615 52.1955C71.1152 52.1553 71.1822 52.1285 71.2626 52.1285C71.3163 52.1285 71.3565 52.1419 71.3967 52.1553C71.4369 52.1687 71.4771 52.1955 71.504 52.2223C71.5308 52.2491 71.5576 52.2893 71.571 52.3296C71.5844 52.3698 71.5978 52.41 71.5978 52.4636C71.5978 52.5173 71.5844 52.5575 71.5576 52.6111L69.6806 57.1293C69.6538 57.1963 69.6136 57.2499 69.5465 57.2901C69.4795 57.3304 69.4259 57.3572 69.3588 57.3572C69.265 57.3572 69.1846 57.3304 69.1175 57.2633C69.0505 57.1963 69.0237 57.1159 69.0237 57.022C69.0237 56.9684 69.0371 56.9148 69.0505 56.8745L69.6404 55.4534L68.4606 52.6245C68.4338 52.5709 68.4338 52.5173 68.4338 52.477C68.4472 52.4234 68.4606 52.3698 68.474 52.3296ZM64.7871 50.895C64.7871 50.8012 64.8139 50.7207 64.8809 50.6537C64.948 50.5867 65.0284 50.5599 65.1222 50.5599C65.2161 50.5599 65.2965 50.5867 65.3636 50.6537C65.4306 50.7207 65.4574 50.8012 65.4574 50.895V53.4423L67.4148 52.1687C67.4685 52.1285 67.5355 52.1151 67.6025 52.1151C67.6562 52.1151 67.6964 52.1285 67.7366 52.1419C67.7768 52.1553 67.817 52.1821 67.8439 52.2089C67.8707 52.2357 67.8975 52.2759 67.9109 52.3162C67.9243 52.3564 67.9377 52.3966 67.9377 52.4502C67.9377 52.5709 67.8975 52.6647 67.8036 52.7184L66.4361 53.6032L67.8439 55.1853C67.9109 55.2523 67.9377 55.3327 67.9377 55.4266C67.9377 55.4668 67.9243 55.5204 67.9109 55.5606C67.8975 55.6009 67.8707 55.6411 67.8439 55.6679C67.817 55.6947 67.7768 55.7215 67.7366 55.7349C67.6964 55.7483 67.6562 55.7618 67.6025 55.7618C67.5087 55.7618 67.4282 55.7349 67.3746 55.6679L65.873 54.0054L65.4708 54.2736V55.4534C65.4708 55.5472 65.444 55.6277 65.377 55.6947C65.3099 55.7618 65.2295 55.802 65.1357 55.802C65.0418 55.802 64.9614 55.7618 64.8943 55.6947C64.8273 55.6277 64.8005 55.5472 64.8005 55.4534V50.895H64.7871ZM61.1404 52.6647C61.5024 52.3028 61.9314 52.1285 62.4409 52.1285C62.9369 52.1285 63.3793 52.3028 63.7413 52.6647C63.9156 52.839 64.0497 53.0401 64.1435 53.2547C64.2374 53.4692 64.2776 53.7105 64.2776 53.9518C64.2776 54.4613 64.1033 54.8903 63.7413 55.2523C63.3793 55.6143 62.9503 55.7886 62.4409 55.7886C61.9314 55.7886 61.5024 55.6143 61.1404 55.2523C60.7784 54.8903 60.6041 54.4613 60.6041 53.9518C60.6041 53.4558 60.7784 53.0133 61.1404 52.6647ZM56.944 52.6647C57.306 52.3028 57.735 52.1285 58.2445 52.1285C58.7405 52.1285 59.183 52.3028 59.545 52.6647C59.7192 52.839 59.8533 53.0401 59.9472 53.2547C60.041 53.4692 60.0812 53.7105 60.0812 53.9518C60.0812 54.4613 59.9069 54.8903 59.545 55.2523C59.183 55.6143 58.7539 55.7886 58.2445 55.7886C57.735 55.7886 57.306 55.6143 56.944 55.2523C56.582 54.8903 56.4077 54.4613 56.4077 53.9518C56.4077 53.4558 56.5954 53.0133 56.944 52.6647ZM52.332 51.324C52.8415 50.8146 53.4582 50.5599 54.1822 50.5599C54.7989 50.5599 55.362 50.761 55.858 51.1766C55.9251 51.2302 55.9519 51.3106 55.9519 51.4179C55.9519 51.4715 55.9385 51.5117 55.9251 51.552C55.9117 51.5922 55.8849 51.6324 55.858 51.6592C55.8312 51.686 55.791 51.7129 55.7508 51.7263C55.7106 51.7397 55.6569 51.7531 55.6167 51.7531C55.5363 51.7531 55.4558 51.7263 55.3754 51.6592C55.2145 51.5252 55.0268 51.4313 54.8257 51.3643C54.6246 51.2972 54.4101 51.257 54.1956 51.257C53.6593 51.257 53.2035 51.4447 52.8281 51.8201C52.4527 52.1955 52.265 52.6513 52.265 53.1742C52.265 53.7105 52.4527 54.1663 52.8281 54.5417C53.2035 54.9171 53.6593 55.1048 54.1956 55.1048C54.6514 55.1048 55.0536 54.9707 55.4022 54.6892C55.4558 54.649 55.5229 54.6356 55.6033 54.6222C55.6569 54.6222 55.6972 54.6356 55.7374 54.649C55.7776 54.6624 55.8178 54.6892 55.8446 54.716C55.8714 54.7428 55.8983 54.783 55.9251 54.8233C55.9385 54.8635 55.9519 54.9171 55.9519 54.9573C55.9519 55.0512 55.9117 55.1316 55.8446 55.2121C55.362 55.6009 54.8123 55.7886 54.1956 55.7886C53.4716 55.7886 52.8549 55.5338 52.3454 55.0244C51.836 54.5149 51.5812 53.8982 51.5812 53.1742C51.5678 52.4502 51.8225 51.8335 52.332 51.324ZM74.3865 64.2618H48.2429V58.2286H74.3865V64.2618Z" fill="#361515"/>
<path d="M60.5774 61.1782V62.8004H60.9394V61.7547C60.9394 61.5134 60.993 61.3123 61.0869 61.1782C61.1807 61.0307 61.3416 60.9637 61.5695 60.9637C61.6365 60.9637 61.7036 60.9771 61.7572 60.9905L61.784 60.6285C61.7572 60.6151 61.7304 60.6151 61.717 60.6151C61.6902 60.6151 61.6634 60.6151 61.6499 60.6151C61.5561 60.6151 61.4757 60.6285 61.4086 60.6553C61.3282 60.6821 61.2611 60.709 61.2075 60.7492C61.1405 60.7894 61.1003 60.8296 61.0466 60.8833C61.0064 60.9369 60.9662 60.9771 60.9394 61.0307H60.9126C60.9126 60.9637 60.9126 60.9101 60.9126 60.8564C60.9126 60.8028 60.9126 60.7358 60.9126 60.6821H60.5774C60.5774 60.7492 60.5774 60.8296 60.5908 60.9101C60.5774 60.9905 60.5774 61.0844 60.5774 61.1782Z" fill="#361515"/>
<path d="M54.0615 61.1782V62.8004H54.4234V61.7547C54.4234 61.634 54.4369 61.5268 54.4637 61.4195C54.4905 61.3257 54.5307 61.2318 54.5843 61.1648C54.638 61.0977 54.705 61.0307 54.7854 60.9905C54.8659 60.9503 54.9731 60.9369 55.0804 60.9369C55.2279 60.9369 55.3351 60.9905 55.3887 61.0843C55.4558 61.1782 55.4826 61.3525 55.4826 61.5938V62.8004H55.8446V61.567C55.8446 61.4731 55.858 61.3927 55.8848 61.3123C55.9116 61.2318 55.9518 61.1648 56.0055 61.1111C56.0591 61.0575 56.1127 61.0173 56.1798 60.9771C56.2468 60.9503 56.3138 60.9369 56.3943 60.9369C56.5015 60.9369 56.582 60.9503 56.649 60.9905C56.716 61.0173 56.7697 61.0709 56.8099 61.1246C56.8501 61.1782 56.8769 61.2452 56.8903 61.3123C56.9037 61.3793 56.9171 61.4597 56.9171 61.5268V62.8004H57.2791V61.5C57.2791 61.3659 57.2657 61.2452 57.2389 61.1246C57.2121 61.0039 57.1719 60.9235 57.1048 60.843C57.0378 60.7626 56.9574 60.7089 56.8501 60.6687C56.7428 60.6285 56.6222 60.6017 56.4613 60.6017C56.3004 60.6017 56.1664 60.6419 56.0591 60.7089C55.9518 60.776 55.858 60.8832 55.791 61.0039C55.7775 60.9637 55.7507 60.9235 55.7239 60.8832C55.6971 60.8296 55.6569 60.7894 55.6033 60.7492C55.5496 60.7089 55.4826 60.6687 55.4156 60.6419C55.3351 60.6151 55.2413 60.6017 55.1206 60.6017C55.0268 60.6017 54.9463 60.6151 54.8793 60.6419C54.7988 60.6687 54.7318 60.6955 54.6782 60.7358C54.6111 60.776 54.5709 60.8162 54.5173 60.8698C54.4771 60.9235 54.4369 60.9637 54.41 61.0173H54.3966C54.3966 60.9503 54.3966 60.8966 54.3966 60.843C54.3966 60.7894 54.3966 60.7223 54.3966 60.6687H54.0615C54.0615 60.7358 54.0615 60.8162 54.0749 60.8966C54.0481 60.9905 54.0615 61.0843 54.0615 61.1782Z" fill="#361515"/>
<path d="M59.3036 61.4732C59.1695 61.4732 59.0354 61.4732 58.8746 61.4866C58.7137 61.5 58.5662 61.5268 58.4321 61.5804C58.2981 61.634 58.1774 61.7011 58.097 61.8083C58.0031 61.9022 57.9629 62.0497 57.9629 62.2239C57.9629 62.3312 57.9897 62.4251 58.0299 62.4921C58.0701 62.5725 58.1238 62.6396 58.2042 62.6932C58.2713 62.7468 58.3651 62.787 58.4589 62.8139C58.5528 62.8407 58.6601 62.8541 58.7673 62.8541C58.9282 62.8541 59.0757 62.8139 59.1829 62.7468C59.3036 62.6798 59.3974 62.5859 59.4645 62.4787H59.4779C59.4779 62.5189 59.4779 62.5725 59.4779 62.6396C59.4779 62.6932 59.4913 62.7468 59.5047 62.8004H59.8533C59.8399 62.7468 59.8399 62.6798 59.8265 62.6262C59.8265 62.5591 59.8131 62.4921 59.8131 62.4385V61.5268C59.8131 61.2184 59.746 60.9905 59.5985 60.843C59.4645 60.6956 59.2366 60.6151 58.9148 60.6151C58.7539 60.6151 58.6064 60.6419 58.4589 60.6956C58.3115 60.7492 58.1774 60.8296 58.0701 60.9503L58.2981 61.1782C58.3785 61.0978 58.4858 61.0441 58.593 61.0039C58.7003 60.9637 58.8209 60.9503 58.9282 60.9503C59.0891 60.9503 59.2231 60.9905 59.317 61.0709C59.4108 61.1514 59.4511 61.2721 59.4511 61.4195V61.4866H59.3036V61.4732ZM59.4377 61.9156C59.4377 62.0094 59.4242 62.0899 59.3974 62.1703C59.3706 62.2508 59.3304 62.3178 59.2768 62.3714C59.2231 62.4251 59.1561 62.4787 59.0891 62.5055C59.0086 62.5457 58.9148 62.5591 58.8209 62.5591C58.6869 62.5591 58.5796 62.5323 58.4858 62.4787C58.3919 62.4251 58.3517 62.3312 58.3517 62.1971C58.3517 62.0497 58.4187 61.9424 58.5528 61.8888C58.6869 61.8217 58.8612 61.7949 59.0891 61.7949H59.4511V61.9156H59.4377Z" fill="#361515"/>
<path d="M43.5385 66.0123H14L19.9077 57.1508H47.9692L43.5385 66.0123Z" fill="#DBAD65"/>
<path d="M52.4001 66.0123H43.5386L47.9693 57.1508L52.4001 66.0123Z" fill="#C19959"/>
<path d="M19.9077 51.243H47.9693V57.1508H19.9077V51.243Z" fill="#E3C687"/>
<path d="M14 66.0122H43.5385V98.5045H14V66.0122Z" fill="#E3C687"/>
<path d="M43.5386 66.0122H52.4001V98.5045H43.5386V66.0122Z" fill="#C19959"/>
</svg>
